# File created by Blade
# Date/Time:  Tue Sep 30 19:06:18 2014
#---------------------------------------------------------
:version 1.10
:name HOM
:units
  mass 1.0
  length 1.000000
  angle deg
:documentation
     Acclaim Skeleton File
:root
   axis xyz
   order TX TY TZ RX RY RZ
   position 0.000000 0.000000 0.000000
   orientation 0 0 0
:bonedata
   begin
      id 1
      name Spine_dum
      direction 0.000000 1.000000 0.000000
      length 7.508948
      axis 0.0 0.0 0.0 xyz
   end
   begin
      id 2
      name LeftUpLeg_dum
      direction 1.000000 0.000000 0.000000
      length 3.000560
      axis 0.0 0.0 0.0 xyz
   end
   begin
      id 3
      name RightUpLeg_dum
      direction -1.000000 0.000000 0.000000
      length 3.000560
      axis 0.0 0.0 0.0 xyz
   end
   begin
      id 4
      name Spine
      direction 0.000000 1.000000 0.000000
      length 0.000000
      axis 0.0 0.0 0.0 xyz
      dof rx ry rz
   end
   begin
      id 5
      name Spine_dum1
      direction 0.000000 1.000000 0.000000
      length 13.861154
      axis 0.0 0.0 0.0 xyz
   end
   begin
      id 6
      name Spine_dum2
      direction 0.000000 1.000000 0.000000
      length 8.204781
      axis 0.0 0.0 0.0 xyz
   end
   begin
      id 7
      name Spine_dum3
      direction 0.000000 1.000000 0.000000
      length 8.204781
      axis 0.0 0.0 0.0 xyz
   end
   begin
      id 8
      name Head
      direction 0.000000 1.000000 0.000000
      length 4.527550
      axis 0.0 0.0 0.0 xyz
      dof rx ry rz
   end
   begin
      id 9
      name LeftShoulder
      direction 1.000000 0.000000 0.000000
      length 6.635956
      axis 0.0 0.0 -90.0 xyz
      dof rx ry rz
   end
   begin
      id 10
      name LeftArm
      direction 1.000000 0.000000 0.000000
      length 10.274218
      axis 0.0 0.0 -90.0 xyz
      dof rx ry rz
   end
   begin
      id 11
      name LeftForeArm
      direction 1.000000 0.000000 0.000000
      length 8.522147
      axis 0.0 0.0 -90.0 xyz
      dof ry rz rx
   end
   begin
      id 12
      name LeftHand
      direction 0.000000 0.000000 0.000000
      length 0.000000
      axis 0.0 0.0 -90.0 xyz
      dof rx ry rz
   end
   begin
      id 13
      name LeftHand_dum1
      direction 0.000000 0.000000 0.000000
      length 0.000000
      axis 0.0 0.0 -90.0 xyz
   end
   begin
      id 14
      name LeftHand_dum2
      direction 1.000000 0.000000 0.000000
      length 3.937000
      axis 0.0 0.0 -90.0 xyz
   end
   begin
      id 15
      name LeftHandThumb1
      direction 0.000000 0.000000 1.000000
      length 3.937000
      axis 0.0 0.0 -90.0 xyz
      dof rx rz ry
   end
   begin
      id 16
      name RightShoulder
      direction -1.000000 0.000000 0.000000
      length 6.635956
      axis 0.0 0.0 90.0 xyz
      dof rx ry rz
   end
   begin
      id 17
      name RightArm
      direction -1.000000 0.000000 0.000000
      length 10.274218
      axis 0.0 0.0 90.0 xyz
      dof rx ry rz
   end
   begin
      id 18
      name RightForeArm
      direction -1.000000 0.000000 0.000000
      length 8.522147
      axis 0.0 0.0 90.0 xyz
      dof ry rz rx
   end
   begin
      id 19
      name RightHand
      direction 0.000000 0.000000 0.000000
      length 0.000000
      axis 0.0 0.0 90.0 xyz
      dof rx ry rz
   end
   begin
      id 20
      name RightHand_dum1
      direction 0.000000 0.000000 0.000000
      length 0.000000
      axis 0.0 0.0 90.0 xyz
   end
   begin
      id 21
      name RightHand_dum2
      direction -1.000000 0.000000 0.000000
      length 3.937000
      axis 0.0 0.0 90.0 xyz
   end
   begin
      id 22
      name RightHandThumb1
      direction 0.000000 0.000000 1.000000
      length 3.937000
      axis 0.0 0.0 90.0 xyz
      dof rx rz ry
   end
   begin
      id 23
      name LeftUpLeg
      direction 0.000000 -1.000000 0.000000
      length 16.490845
      axis 0.0 0.0 0.0 xyz
      dof rx ry rz
   end
   begin
      id 24
      name LeftLeg
      direction 0.000000 -1.000000 0.000000
      length 14.556576
      axis 0.0 0.0 0.0 xyz
      dof rx ry rz
   end
   begin
      id 25
      name LeftFoot
      direction 0.000000 -0.258819 0.965926
      length 4.831116
      axis 15.0 0.0 0.0 xyz
      dof rx ry rz
   end
   begin
      id 26
      name LeftToeBase
      direction 0.000000 0.000000 1.000000
      length 2.952750
      axis 0.0 0.0 0.0 xyz
      dof rx ry rz
   end
   begin
      id 27
      name RightUpLeg
      direction 0.000000 -1.000000 0.000000
      length 16.490845
      axis 0.0 0.0 0.0 xyz
      dof rx ry rz
   end
   begin
      id 28
      name RightLeg
      direction 0.000000 -1.000000 0.000000
      length 14.556576
      axis 0.0 0.0 0.0 xyz
      dof rx ry rz
   end
   begin
      id 29
      name RightFoot
      direction 0.000000 -0.258819 0.965926
      length 4.831116
      axis 15.0 0.0 0.0 xyz
      dof rx ry rz
   end
   begin
      id 30
      name RightToeBase
      direction 0.000000 0.000000 1.000000
      length 2.952750
      axis 0.0 0.0 0.0 xyz
      dof rx ry rz
   end
:hierarchy
   begin
      root Spine_dum LeftUpLeg_dum RightUpLeg_dum
      Spine_dum Spine
      LeftUpLeg_dum LeftUpLeg
      RightUpLeg_dum RightUpLeg
      Spine Spine_dum1 Spine_dum2 Spine_dum3
      Spine_dum1 Head
      Spine_dum2 LeftShoulder
      Spine_dum3 RightShoulder
      LeftShoulder LeftArm
      LeftArm LeftForeArm
      LeftForeArm LeftHand
      LeftHand LeftHand_dum1 LeftHand_dum2
      LeftHand_dum1 LeftHandThumb1
      RightShoulder RightArm
      RightArm RightForeArm
      RightForeArm RightHand
      RightHand RightHand_dum1 RightHand_dum2
      RightHand_dum1 RightHandThumb1
      LeftUpLeg LeftLeg
      LeftLeg LeftFoot
      LeftFoot LeftToeBase
      RightUpLeg RightLeg
      RightLeg RightFoot
      RightFoot RightToeBase
   end

# File created by Blade
# Date/Time:  Thu Sep 25 18:39:44 2014
# Frame Rate: 120.000 fps
#------------------------------------------------------
:FULLY-SPECIFIED
:DEGREES
327
root -0.763721 33.162852 -2.242773 7.131942 8.707083 -0.241364
Spine -11.396042 4.305922 -1.558894
Head 18.093286 -14.917489 4.543341
LeftShoulder -11.862476 -0.678404 46.017645
LeftArm 126.223909 -57.514674 -83.643309
LeftForeArm -38.441202 -0.000000 78.621011
LeftHand -12.366499 0.000000 -33.122292
LeftHandThumb1 -26.253704 0.000000 33.147579
RightShoulder -114.059792 55.519470 -180.903273
RightArm -13.443158 18.706286 48.082012
RightForeArm 43.128102 0.000000 158.372770
RightHand 10.187872 -0.000000 21.792983
RightHandThumb1 -24.326973 -0.000000 -32.862282
LeftUpLeg -0.509261 3.798973 1.650112
LeftLeg -1.737519 -0.000000 0.000000
LeftFoot -6.907767 -1.015643 -10.789125
LeftToeBase 9.668417 -0.000000 -0.000000
RightUpLeg -0.108745 -9.405254 -0.143260
RightLeg 0.456460 -0.000000 -0.000000
RightFoot -7.209227 -4.149203 1.528641
RightToeBase -0.555036 -0.000000 0.000000
328
root -0.766211 33.162131 -2.237779 7.122098 8.744719 -0.235597
Spine -11.425712 4.345961 -1.515051
Head 18.111759 -14.934723 4.503242
LeftShoulder -11.772633 -0.656973 45.918310
LeftArm 126.249435 -57.494923 -83.530031
LeftForeArm -38.435682 -0.000000 79.007532
LeftHand -12.427925 -0.000000 -33.091258
LeftHandThumb1 -26.253704 0.000000 33.147579
RightShoulder -114.004795 55.568322 -180.895566
RightArm -13.490701 18.696641 47.992696
RightForeArm 43.172031 -0.000000 158.399321
RightHand 10.088380 -0.000000 21.611466
RightHandThumb1 -24.326973 -0.000000 -32.862282
LeftUpLeg -0.490954 3.775188 1.656646
LeftLeg -1.751886 -0.000000 0.000000
LeftFoot -6.954459 -1.014943 -10.956709
LeftToeBase 9.908831 -0.000000 -0.000000
RightUpLeg -0.090117 -9.427730 -0.142253
RightLeg 0.466264 -0.000000 -0.000000
RightFoot -7.220959 -4.161047 1.528794
RightToeBase -0.582498 -0.000000 0.000000
329
root -0.767752 33.161476 -2.233971 7.113461 8.774269 -0.226671
Spine -11.459164 4.426370 -1.468044
Head 18.142417 -14.982007 4.426456
LeftShoulder -11.633654 -0.659024 45.794847
LeftArm 126.260346 -57.505554 -83.416176
LeftForeArm -38.481663 0.000000 79.377979
LeftHand -12.403830 -0.000000 -33.132443
LeftHandThumb1 -26.253704 0.000000 33.147579
RightShoulder -113.938704 55.603846 -180.873747
RightArm -13.506028 18.557793 47.939048
RightForeArm 43.113179 -0.000000 158.388051
RightHand 10.162032 -0.000000 21.610328
RightHandThumb1 -24.326973 -0.000000 -32.862282
LeftUpLeg -0.482065 3.747057 1.655691
LeftLeg -1.743719 -0.000000 0.000000
LeftFoot -6.964115 -1.014673 -10.957105
LeftToeBase 9.921886 -0.000000 -0.000000
RightUpLeg -0.066420 -9.423402 -0.144922
RightLeg 0.459971 -0.000000 -0.000000
RightFoot -7.244551 -4.198231 1.526720
RightToeBase -0.521795 -0.000000 0.000000
330
root -0.770208 33.161002 -2.229126 7.098737 8.799462 -0.226309
Spine -11.492067 4.514556 -1.401198
Head 18.209708 -14.980908 4.379489
LeftShoulder -11.485511 -0.661926 45.666217
LeftArm 126.211079 -57.544717 -83.262409
LeftForeArm -38.454425 -0.000000 79.794153
LeftHand -12.421170 0.000000 -32.995974
LeftHandThumb1 -26.253704 0.000000 33.147579
RightShoulder -113.744251 55.701820 -180.716986
RightArm -13.410876 18.502178 47.925871
RightForeArm 42.968017 -0.000000 158.368707
RightHand 10.369002 0.000000 21.642982
RightHandThumb1 -24.326973 -0.000000 -32.862282
LeftUpLeg -0.460801 3.727826 1.662097
LeftLeg -1.743796 -0.000000 0.000000
LeftFoot -6.917915 -1.028530 -10.785115
LeftToeBase 9.690041 -0.000000 -0.000000
RightUpLeg -0.032236 -9.418220 -0.140873
RightLeg 0.442163 -0.000000 -0.000000
RightFoot -7.232399 -4.230091 1.526157
RightToeBase -0.582167 -0.000000 0.000000
331
root -0.772334 33.160752 -2.224447 7.083668 8.823927 -0.220288
Spine -11.519956 4.575171 -1.351581
Head 18.279430 -15.012295 4.314143
LeftShoulder -11.383036 -0.719052 45.628305
LeftArm 125.981780 -57.565699 -83.038140
LeftForeArm -38.542905 -0.000000 80.203796
LeftHand -12.426099 0.000000 -32.869079
LeftHandThumb1 -26.253704 0.000000 33.147579
RightShoulder -113.545886 55.794542 -180.550882
RightArm -13.328386 18.538243 47.923430
RightForeArm 42.885129 0.000000 158.363928
RightHand 10.242490 -0.000000 21.366808
RightHandThumb1 -24.326973 -0.000000 -32.862282
LeftUpLeg -0.442643 3.717613 1.665344
LeftLeg -1.742449 -0.000000 0.000000
LeftFoot -6.966082 -1.032060 -10.940116
LeftToeBase 9.953005 -0.000000 -0.000000
RightUpLeg -0.001884 -9.438441 -0.143343
RightLeg 0.435158 -0.000000 -0.000000
RightFoot -7.250557 -4.237264 1.524649
RightToeBase -0.536798 -0.000000 0.000000
332
root -0.774710 33.160565 -2.219372 7.068586 8.853428 -0.208934
Spine -11.548700 4.624030 -1.324713
Head 18.354508 -15.110691 4.159765
LeftShoulder -11.284695 -0.731011 45.601738
LeftArm 125.852931 -57.591260 -82.907614
LeftForeArm -38.803775 -0.000000 80.572544
LeftHand -12.467951 0.000000 -32.900047
LeftHandThumb1 -26.253704 0.000000 33.147579
RightShoulder -113.511041 55.810346 -180.582795
RightArm -13.389618 18.545922 47.938649
RightForeArm 43.022873 -0.000000 158.371605
RightHand 10.351532 -0.000000 21.858917
RightHandThumb1 -24.326973 -0.000000 -32.862282
LeftUpLeg -0.418297 3.671368 1.664630
LeftLeg -1.748765 -0.000000 0.000000
LeftFoot -6.959899 -1.006506 -10.947372
LeftToeBase 9.906179 -0.000000 -0.000000
RightUpLeg 0.027373 -9.475054 -0.150485
RightLeg 0.433800 -0.000000 -0.000000
RightFoot -7.255436 -4.225373 1.502446
RightToeBase -0.521054 -0.000000 0.000000
333
root -0.777350 33.160215 -2.214997 7.057550 8.879622 -0.195356
Spine -11.581688 4.631484 -1.316808
Head 18.433812 -15.168373 4.108622
LeftShoulder -11.237105 -0.693381 45.609931
LeftArm 125.756939 -57.566426 -82.806494
LeftForeArm -38.848132 -0.000000 80.953836
LeftHand -12.415355 0.000000 -32.453932
LeftHandThumb1 -26.253704 0.000000 33.147579
RightShoulder -113.512499 55.891045 -180.592927
RightArm -13.358252 18.701930 47.882685
RightForeArm 43.136302 -0.000000 158.393860
RightHand 10.189426 0.000000 21.841221
RightHandThumb1 -24.326973 -0.000000 -32.862282
LeftUpLeg -0.405885 3.652742 1.660007
LeftLeg -1.740981 -0.000000 0.000000
LeftFoot -6.960877 -1.012955 -10.957890
LeftToeBase 9.900913 -0.000000 -0.000000
RightUpLeg 0.055025 -9.494066 -0.158612
RightLeg 0.424886 -0.000000 -0.000000
RightFoot -7.258883 -4.237138 1.508751
RightToeBase -0.552956 -0.000000 0.000000
